<?xml version="1.0" encoding="UTF-8" standalone="no"?>
<svg
   xmlns:dc="http://purl.org/dc/elements/1.1/"
   xmlns:cc="http://creativecommons.org/ns#"
   xmlns:rdf="http://www.w3.org/1999/02/22-rdf-syntax-ns#"
   xmlns:svg="http://www.w3.org/2000/svg"
   xmlns="http://www.w3.org/2000/svg"
   xmlns:sodipodi="http://sodipodi.sourceforge.net/DTD/sodipodi-0.dtd"
   xmlns:inkscape="http://www.inkscape.org/namespaces/inkscape"
   width="1800px"
   height="900px"
   viewBox="0 0 1800 900"
   zoomAndPan="disable"
   version="1.1"
   id="svg62"
   sodipodi:docname="banner.svg"
   inkscape:version="0.92.2 (5c3e80d, 2017-08-06)">
  <metadata
     id="metadata68">
    <rdf:RDF>
      <cc:Work
         rdf:about="">
        <dc:format>image/svg+xml</dc:format>
        <dc:type
           rdf:resource="http://purl.org/dc/dcmitype/StillImage" />
      </cc:Work>
    </rdf:RDF>
  </metadata>
  <defs
     id="defs66" />
  <sodipodi:namedview
     pagecolor="#ffffff"
     bordercolor="#666666"
     borderopacity="1"
     objecttolerance="10"
     gridtolerance="10"
     guidetolerance="10"
     inkscape:pageopacity="0"
     inkscape:pageshadow="2"
     inkscape:window-width="1920"
     inkscape:window-height="1017"
     id="namedview64"
     showgrid="false"
     inkscape:zoom="0.45097699"
     inkscape:cx="638.76613"
     inkscape:cy="475.97559"
     inkscape:window-x="-8"
     inkscape:window-y="-8"
     inkscape:window-maximized="1"
     inkscape:current-layer="svg62" />
  <style
     type="text/css"
     id="style2"><![CDATA[
		line
		{
			stroke: rgba(255,255,255,0.125);
			stroke-width: 0.85px;
		}
		
		polygon
		{
			fill: rgba(255,255,255,0.075);
		}
    ]]></style>
  <!-- Middle line -->
  <line
     x1="900"
     y1="0"
     x2="900"
     y2="900"
     id="line4"
     style="fill:#f60000;fill-opacity:1" />
  <!-- Lines -->
  <line
     x1="0"
     y1="0"
     x2="900"
     y2="900"
     id="line6" />
  <line
     x1="100"
     y1="0"
     x2="900"
     y2="800"
     id="line8" />
  <line
     x1="200"
     y1="0"
     x2="900"
     y2="700"
     id="line10" />
  <line
     x1="300"
     y1="0"
     x2="900"
     y2="600"
     id="line12" />
  <line
     x1="400"
     y1="0"
     x2="900"
     y2="500"
     id="line14" />
  <line
     x1="300"
     y1="900"
     x2="600"
     y2="600"
     id="line16" />
  <line
     x1="400"
     y1="900"
     x2="700"
     y2="600"
     id="line18" />
  <line
     x1="500"
     y1="900"
     x2="800"
     y2="600"
     id="line20" />
  <line
     x1="600"
     y1="900"
     x2="900"
     y2="600"
     id="line22" />
  <line
     x1="700"
     y1="900"
     x2="900"
     y2="700"
     id="line24" />
  <line
     x1="800"
     y1="900"
     x2="900"
     y2="800"
     id="line26" />
  <line
     x1="1800"
     y1="0"
     x2="900"
     y2="900"
     id="line28" />
  <line
     x1="1700"
     y1="0"
     x2="900"
     y2="800"
     id="line30" />
  <line
     x1="1600"
     y1="0"
     x2="900"
     y2="700"
     id="line32" />
  <line
     x1="1500"
     y1="0"
     x2="900"
     y2="600"
     id="line34" />
  <line
     x1="1400"
     y1="0"
     x2="900"
     y2="500"
     id="line36" />
  <line
     x1="1500"
     y1="900"
     x2="1200"
     y2="600"
     id="line38" />
  <line
     x1="1400"
     y1="900"
     x2="1100"
     y2="600"
     id="line40" />
  <line
     x1="1300"
     y1="900"
     x2="1000"
     y2="600"
     id="line42" />
  <line
     x1="1200"
     y1="900"
     x2="900"
     y2="600"
     id="line44" />
  <line
     x1="1100"
     y1="900"
     x2="900"
     y2="700"
     id="line46" />
  <line
     x1="1000"
     y1="900"
     x2="900"
     y2="800"
     id="line48" />
  <!-- Fills -->
  <polygon
     points="300,900 600,600 650,650 700,600 750,650 800,600 850,650 900,600 900,900 900,600 950,650 1000,600 1050,650 1100,600 1150,650 1200,600 1500,900"
     id="polygon50" />
  <polygon
     points="350,950 650,650 700,700 750,650 800,700 850,650 900,700 900,900 900,700 950,650 1000,700 1050,650 1100,700 1150,650 1450,950"
     id="polygon52" />
  <polygon
     points="400,1000 700,700 750,750 800,700 850,750 900,700 900,900 900,700 950,750 1000,700 1050,750 1100,700 1300,900"
     id="polygon54" />
  <polygon
     points="450,1050 750,750 800,800 850,750 900,800 900,900 900,800 950,750 1000,800 1050,750 1350,1050"
     id="polygon56" />
  <polygon
     points="500,1100 800,800 850,850 900,800 900,900 900,800 950,850 1000,800 1300,1100"
     id="polygon58" />
  <polygon
     points="550,1150 850,850 900,900 950,850 1250,1150"
     id="polygon60" />
</svg>
